<svg version="1" xmlns="http://www.w3.org/2000/svg" width="1365.333" height="1365.333" viewBox="0 0 1024.000000 1024.000000"><path d="M59 258.4v14.3l6 .7c3.2.4 11.3 2 17.8 3.6 32.8 8 45.4 17.6 49.2 37.7.8 4.2 1 64.9.8 214.8l-.3 209-2.4 5.9c-1.3 3.4-4.4 8.1-6.9 10.8-8 8.6-17.8 11.8-41.7 13.8-7.1.5-15.1 1.3-17.7 1.6l-4.8.6V799h231V771.3l-11.9-1.6c-15.4-2.2-33.8-6.9-39.8-10.2-11.8-6.4-17.9-14.5-20.2-26.9-.8-4.1-1.1-37.7-1.1-105.3V528h260.1l-.3 104.7c-.3 101.9-.4 104.9-2.3 110.3-2.6 6.9-7.3 10.6-19.2 15-9.4 3.4-40.6 11.4-48.6 12.5l-4.7.6V799h231V771.3l-8.4-1.2c-11.5-1.6-38.4-8.5-43.7-11.1-6.7-3.5-14.2-11.7-17-18.5l-2.4-6-.3-171.4c-.1-94.3-.1-171.3.1-171 .2.2 62.9 84.8 139.2 187.9 76.4 103.1 145.1 195.9 152.8 206.3l13.9 18.7 17.2-.2 17.1-.3.6-225.5c.5-206.8.7-226.5 2.2-237.5 4.3-29.4 10.2-43.4 21.5-50.6 9.6-6.1 37.4-14.5 56.5-17.1l8.7-1.2V244l-112.7.2-112.8.3-.3 14-.2 14 11.1 1.8c22.3 3.6 54.3 14.3 63.2 21.1 10.2 7.8 17.3 26.7 21.4 56.7 1.4 11 1.7 29.2 2 163.4.4 142.5.3 150.9-1.3 148.6-1-1.3-64.5-87.5-141.1-191.4-76.7-104-139-189.4-138.6-189.8 2.3-2.3 39.3-9.9 48.1-9.9h3.2v-29H393v28.6l8.3 1.2c16.6 2.6 43.9 13.2 58.4 22.8 10.1 6.7 14.9 12.1 16.2 18.2.8 3.7 1.1 32.1 1.1 91.7V493H217v-88.9c0-74.7.2-90.1 1.5-96 4.4-21.1 12.8-26.4 51.8-33.1 6.6-1.1 13.7-2 15.8-2h4l-.3-14.3-.3-14.2-115.2-.3L59 244v14.4z"/></svg>